<?xml version="1.0" encoding="UTF-8" standalone="no"?>
<!DOCTYPE svg PUBLIC "-//W3C//DTD SVG 1.1//EN" "http://www.w3.org/Graphics/SVG/1.1/DTD/svg11.dtd">
<svg width="100%" height="100%" viewBox="0 0 24 24" version="1.1" xmlns="http://www.w3.org/2000/svg" xmlns:xlink="http://www.w3.org/1999/xlink" xml:space="preserve" xmlns:serif="http://www.serif.com/" style="fill-rule:evenodd;clip-rule:evenodd;stroke-linejoin:round;stroke-miterlimit:2;">
    <g transform="matrix(1.08854,0,0,1.08854,-1.06246,-1.0405)">
        <path d="M12,1.895C6.417,1.895 1.895,6.423 1.895,12C1.895,16.466 4.792,20.251 8.805,21.59C9.308,21.683 9.494,21.373 9.494,21.1C9.494,20.858 9.488,20.226 9.481,19.382C6.671,19.99 6.076,18.03 6.076,18.03C5.617,16.863 4.953,16.553 4.953,16.553C4.035,15.927 5.021,15.939 5.021,15.939C6.032,16.014 6.572,16.981 6.572,16.981C7.472,18.526 8.936,18.079 9.512,17.819C9.606,17.167 9.866,16.721 10.151,16.466C7.906,16.212 5.549,15.344 5.549,11.473C5.549,10.368 5.939,9.469 6.591,8.762C6.485,8.508 6.138,7.478 6.69,6.088C6.69,6.088 7.54,5.815 9.469,7.124C10.275,6.901 11.138,6.789 12,6.783C12.856,6.789 13.725,6.901 14.531,7.124C16.46,5.815 17.31,6.088 17.31,6.088C17.862,7.478 17.515,8.508 17.409,8.762C18.055,9.469 18.445,10.368 18.445,11.473C18.445,15.356 16.082,16.206 13.83,16.46C14.19,16.77 14.519,17.391 14.519,18.334C14.519,19.686 14.506,20.772 14.506,21.107C14.506,21.38 14.686,21.69 15.201,21.59C19.215,20.251 22.105,16.466 22.105,12.006C22.105,6.423 17.583,1.895 12,1.895Z" style="fill:rgb(25,23,23);"/>
    </g>
</svg>
