<svg viewBox="0 0 24 24" xmlns="http://www.w3.org/2000/svg" fill-rule="evenodd" clip-rule="evenodd" stroke-linejoin="round" stroke-miterlimit="2"><path d="M12 1.022c-6.077 0-11 4.93-11 11 0 4.861 3.154 8.982 7.522 10.44.548.1.75-.237.75-.534 0-.264-.006-.952-.014-1.87-3.059.661-3.706-1.472-3.706-1.472-.5-1.27-1.223-1.608-1.223-1.608-1-.681.074-.668.074-.668 1.1.081 1.688 1.134 1.688 1.134.98 1.682 2.574 1.195 3.2.912.103-.71.386-1.195.696-1.473-2.443-.276-5.01-1.22-5.01-5.435 0-1.203.425-2.181 1.135-2.95-.115-.277-.493-1.398.108-2.911 0 0 .925-.298 3.025 1.127A10.68 10.68 0 0112 6.344c.932.006 1.878.128 2.755.37 2.1-1.425 3.025-1.127 3.025-1.127.601 1.513.223 2.634.108 2.91.703.77 1.128 1.748 1.128 2.951 0 4.227-2.573 5.152-5.024 5.429.392.337.75 1.013.75 2.04 0 1.471-.014 2.654-.014 3.018 0 .297.196.635.756.526C19.854 21.004 23 16.883 23 12.03c0-6.08-4.923-11.008-11-11.008z" fill="#191717"/></svg>